<svg width="24" height="21" viewBox="0 0 24 21" fill="none" xmlns="http://www.w3.org/2000/svg">
<g filter="url(#filter0_i_4827_9)">
<path d="M9 16C9.15533 16 9.30974 15.9965 9.46314 15.9896C14.2185 15.7753 18 12.2802 18 8C18 3.58172 13.9706 0 9 0C4.02944 0 0 3.58172 0 8C0 9.5545 0.498805 11.0055 1.36191 12.2333L0.494498 15.2693C0.278969 16.0236 0.976391 16.721 1.73074 16.5055L5.58545 15.4042C6.06745 15.58 6.5704 15.7197 7.09006 15.8195C7.70563 15.9377 8.34463 16 9 16Z" fill="url(#paint0_linear_4827_9)"/>
<path d="M24 12C24 9.2902 22.4843 6.89509 20.1654 5.44795C20.3834 6.2577 20.5 7.11131 20.5 8C20.5 13.8266 15.4895 18.1452 9.71977 18.4792C11.2029 19.4359 13.0273 20 15 20C16.2086 20 17.3616 19.7882 18.4146 19.4042L22.2693 20.5055C23.0236 20.721 23.721 20.0236 23.5055 19.2693L22.6381 16.2333C23.5012 15.0055 24 13.5545 24 12Z" fill="url(#paint1_linear_4827_9)"/>
</g>
<defs>
<filter id="filter0_i_4827_9" x="0" y="0" width="24" height="24.5452" filterUnits="userSpaceOnUse" color-interpolation-filters="sRGB">
<feFlood flood-opacity="0" result="BackgroundImageFix"/>
<feBlend mode="normal" in="SourceGraphic" in2="BackgroundImageFix" result="shape"/>
<feColorMatrix in="SourceAlpha" type="matrix" values="0 0 0 0 0 0 0 0 0 0 0 0 0 0 0 0 0 0 127 0" result="hardAlpha"/>
<feOffset dy="4"/>
<feGaussianBlur stdDeviation="2"/>
<feComposite in2="hardAlpha" operator="arithmetic" k2="-1" k3="1"/>
<feColorMatrix type="matrix" values="0 0 0 0 0 0 0 0 0 0 0 0 0 0 0 0 0 0 0.25 0"/>
<feBlend mode="normal" in2="shape" result="effect1_innerShadow_4827_9"/>
</filter>
<linearGradient id="paint0_linear_4827_9" x1="9" y1="7" x2="34" y2="29.5" gradientUnits="userSpaceOnUse">
<stop stop-color="#004AC6"/>
<stop offset="1" stop-color="#FAF8FF"/>
</linearGradient>
<linearGradient id="paint1_linear_4827_9" x1="9" y1="7" x2="34" y2="29.5" gradientUnits="userSpaceOnUse">
<stop stop-color="#004AC6"/>
<stop offset="1" stop-color="#FAF8FF"/>
</linearGradient>
</defs>
</svg>
